%TF.GenerationSoftware,KiCad,Pcbnew,8.0.4*%
%TF.CreationDate,2024-08-09T00:28:41-05:00*%
%TF.ProjectId,FeatherDancer,46656174-6865-4724-9461-6e6365722e6b,rev?*%
%TF.SameCoordinates,Original*%
%TF.FileFunction,Drillmap*%
%TF.FilePolarity,Positive*%
%FSLAX45Y45*%
G04 Gerber Fmt 4.5, Leading zero omitted, Abs format (unit mm)*
G04 Created by KiCad (PCBNEW 8.0.4) date 2024-08-09 00:28:41*
%MOMM*%
%LPD*%
G01*
G04 APERTURE LIST*
%ADD10C,0.050000*%
%ADD11C,0.200000*%
G04 APERTURE END LIST*
D10*
X12728023Y-11391900D02*
G75*
G02*
X12417977Y-11391900I-155023J0D01*
G01*
X12417977Y-11391900D02*
G75*
G02*
X12728023Y-11391900I155023J0D01*
G01*
X12717738Y-9611360D02*
G75*
G02*
X12410482Y-9611360I-153628J0D01*
G01*
X12410482Y-9611360D02*
G75*
G02*
X12717738Y-9611360I153628J0D01*
G01*
X17288896Y-9611360D02*
G75*
G02*
X16983324Y-9611360I-152786J0D01*
G01*
X16983324Y-9611360D02*
G75*
G02*
X17288896Y-9611360I152786J0D01*
G01*
X17288896Y-11389360D02*
G75*
G02*
X16983324Y-11389360I-152786J0D01*
G01*
X16983324Y-11389360D02*
G75*
G02*
X17288896Y-11389360I152786J0D01*
G01*
X17136110Y-9357360D02*
G75*
G02*
X17390110Y-9611360I0J-254000D01*
G01*
X12564110Y-9357360D02*
X17136110Y-9357360D01*
X12310110Y-11389360D02*
X12310110Y-9611360D01*
X17390110Y-9611360D02*
X17390110Y-11389360D01*
X12310110Y-9611360D02*
G75*
G02*
X12564110Y-9357360I254000J0D01*
G01*
X17390110Y-11389360D02*
G75*
G02*
X17136110Y-11643360I-254000J0D01*
G01*
X12564110Y-11643360D02*
G75*
G02*
X12310110Y-11389360I0J254000D01*
G01*
X17136110Y-11643360D02*
X12564110Y-11643360D01*
D11*
X12568387Y-11957344D02*
X12568387Y-11757344D01*
X12568387Y-11757344D02*
X12616006Y-11757344D01*
X12616006Y-11757344D02*
X12644577Y-11766868D01*
X12644577Y-11766868D02*
X12663625Y-11785915D01*
X12663625Y-11785915D02*
X12673149Y-11804963D01*
X12673149Y-11804963D02*
X12682672Y-11843058D01*
X12682672Y-11843058D02*
X12682672Y-11871629D01*
X12682672Y-11871629D02*
X12673149Y-11909725D01*
X12673149Y-11909725D02*
X12663625Y-11928772D01*
X12663625Y-11928772D02*
X12644577Y-11947820D01*
X12644577Y-11947820D02*
X12616006Y-11957344D01*
X12616006Y-11957344D02*
X12568387Y-11957344D01*
X12768387Y-11957344D02*
X12768387Y-11824010D01*
X12768387Y-11862106D02*
X12777911Y-11843058D01*
X12777911Y-11843058D02*
X12787434Y-11833534D01*
X12787434Y-11833534D02*
X12806482Y-11824010D01*
X12806482Y-11824010D02*
X12825530Y-11824010D01*
X12892196Y-11957344D02*
X12892196Y-11824010D01*
X12892196Y-11757344D02*
X12882672Y-11766868D01*
X12882672Y-11766868D02*
X12892196Y-11776391D01*
X12892196Y-11776391D02*
X12901720Y-11766868D01*
X12901720Y-11766868D02*
X12892196Y-11757344D01*
X12892196Y-11757344D02*
X12892196Y-11776391D01*
X13016006Y-11957344D02*
X12996958Y-11947820D01*
X12996958Y-11947820D02*
X12987434Y-11928772D01*
X12987434Y-11928772D02*
X12987434Y-11757344D01*
X13120768Y-11957344D02*
X13101720Y-11947820D01*
X13101720Y-11947820D02*
X13092196Y-11928772D01*
X13092196Y-11928772D02*
X13092196Y-11757344D01*
X13349339Y-11957344D02*
X13349339Y-11757344D01*
X13349339Y-11757344D02*
X13416006Y-11900201D01*
X13416006Y-11900201D02*
X13482672Y-11757344D01*
X13482672Y-11757344D02*
X13482672Y-11957344D01*
X13663625Y-11957344D02*
X13663625Y-11852582D01*
X13663625Y-11852582D02*
X13654101Y-11833534D01*
X13654101Y-11833534D02*
X13635053Y-11824010D01*
X13635053Y-11824010D02*
X13596958Y-11824010D01*
X13596958Y-11824010D02*
X13577911Y-11833534D01*
X13663625Y-11947820D02*
X13644577Y-11957344D01*
X13644577Y-11957344D02*
X13596958Y-11957344D01*
X13596958Y-11957344D02*
X13577911Y-11947820D01*
X13577911Y-11947820D02*
X13568387Y-11928772D01*
X13568387Y-11928772D02*
X13568387Y-11909725D01*
X13568387Y-11909725D02*
X13577911Y-11890677D01*
X13577911Y-11890677D02*
X13596958Y-11881153D01*
X13596958Y-11881153D02*
X13644577Y-11881153D01*
X13644577Y-11881153D02*
X13663625Y-11871629D01*
X13758863Y-11824010D02*
X13758863Y-12024010D01*
X13758863Y-11833534D02*
X13777911Y-11824010D01*
X13777911Y-11824010D02*
X13816006Y-11824010D01*
X13816006Y-11824010D02*
X13835053Y-11833534D01*
X13835053Y-11833534D02*
X13844577Y-11843058D01*
X13844577Y-11843058D02*
X13854101Y-11862106D01*
X13854101Y-11862106D02*
X13854101Y-11919248D01*
X13854101Y-11919248D02*
X13844577Y-11938296D01*
X13844577Y-11938296D02*
X13835053Y-11947820D01*
X13835053Y-11947820D02*
X13816006Y-11957344D01*
X13816006Y-11957344D02*
X13777911Y-11957344D01*
X13777911Y-11957344D02*
X13758863Y-11947820D01*
X13939815Y-11938296D02*
X13949339Y-11947820D01*
X13949339Y-11947820D02*
X13939815Y-11957344D01*
X13939815Y-11957344D02*
X13930292Y-11947820D01*
X13930292Y-11947820D02*
X13939815Y-11938296D01*
X13939815Y-11938296D02*
X13939815Y-11957344D01*
X13939815Y-11833534D02*
X13949339Y-11843058D01*
X13949339Y-11843058D02*
X13939815Y-11852582D01*
X13939815Y-11852582D02*
X13930292Y-11843058D01*
X13930292Y-11843058D02*
X13939815Y-11833534D01*
X13939815Y-11833534D02*
X13939815Y-11852582D01*
M02*
