M48
; DRILL file {KiCad 8.0.4} date 2024-08-09T00:28:39-0500
; FORMAT={-:-/ absolute / inch / decimal}
; #@! TF.CreationDate,2024-08-09T00:28:39-05:00
; #@! TF.GenerationSoftware,Kicad,Pcbnew,8.0.4
; #@! TF.FileFunction,Plated,1,2,PTH
FMAT,2
INCH
; #@! TA.AperFunction,Plated,PTH,ComponentDrill
T1C0.0276
; #@! TA.AperFunction,Plated,PTH,ComponentDrill
T2C0.0295
; #@! TA.AperFunction,Plated,PTH,ComponentDrill
T3C0.0315
; #@! TA.AperFunction,Plated,PTH,ComponentDrill
T4C0.0394
; #@! TA.AperFunction,Plated,PTH,ComponentDrill
T5C0.0787
%
G90
G05
T1
X5.6663Y-4.355
X5.8644Y-4.08
X5.8663Y-4.355
X6.025Y-4.21
X6.025Y-4.41
X6.0644Y-4.08
X6.255Y-4.21
X6.255Y-4.41
T2
X5.435Y-4.35
X5.485Y-4.3
X5.485Y-4.4
X5.7342Y-3.92
X5.7842Y-3.87
X5.7842Y-3.97
T3
X5.1708Y-4.35
X5.2692Y-4.35
X6.0258Y-3.92
X6.1242Y-3.92
T4
X5.0965Y-4.534
X5.1965Y-4.534
X5.2965Y-4.534
X5.3965Y-4.534
X5.4965Y-3.734
X5.4965Y-4.534
X5.5965Y-3.734
X5.5965Y-4.534
X5.6965Y-3.734
X5.6965Y-4.534
X5.7965Y-3.734
X5.7965Y-4.534
X5.8965Y-3.734
X5.8965Y-4.534
X5.9965Y-3.734
X5.9965Y-4.534
X6.0965Y-3.734
X6.0965Y-4.534
X6.1965Y-3.734
X6.1965Y-4.534
X6.2965Y-3.734
X6.2965Y-4.534
X6.3965Y-3.734
X6.3965Y-4.534
X6.4965Y-3.734
X6.4965Y-4.534
X6.5965Y-3.734
X6.5965Y-4.534
T5
X5.0904Y-4.0589
X5.1849Y-3.9802
X5.4014Y-3.9802
M30
