%TF.GenerationSoftware,KiCad,Pcbnew,8.0.4*%
%TF.CreationDate,2024-08-09T00:28:27-05:00*%
%TF.ProjectId,FeatherDancer,46656174-6865-4724-9461-6e6365722e6b,rev?*%
%TF.SameCoordinates,Original*%
%TF.FileFunction,Soldermask,Bot*%
%TF.FilePolarity,Negative*%
%FSLAX46Y46*%
G04 Gerber Fmt 4.6, Leading zero omitted, Abs format (unit mm)*
G04 Created by KiCad (PCBNEW 8.0.4) date 2024-08-09 00:28:27*
%MOMM*%
%LPD*%
G01*
G04 APERTURE LIST*
%ADD10R,1.700000X1.700000*%
%ADD11O,1.700000X1.700000*%
%ADD12C,1.400000*%
%ADD13O,1.400000X1.400000*%
%ADD14C,1.600000*%
%ADD15C,2.800000*%
%ADD16R,1.300000X1.300000*%
%ADD17C,1.300000*%
G04 APERTURE END LIST*
D10*
%TO.C,J2*%
X139611100Y-94843600D03*
D11*
X142151100Y-94843600D03*
X144691100Y-94843600D03*
X147231100Y-94843600D03*
X149771100Y-94843600D03*
X152311100Y-94843600D03*
X154851100Y-94843600D03*
X157391100Y-94843600D03*
X159931100Y-94843600D03*
X162471100Y-94843600D03*
X165011100Y-94843600D03*
X167551100Y-94843600D03*
%TD*%
D10*
%TO.C,J1*%
X129451100Y-115163600D03*
D11*
X131991100Y-115163600D03*
X134531100Y-115163600D03*
X137071100Y-115163600D03*
X139611100Y-115163600D03*
X142151100Y-115163600D03*
X144691100Y-115163600D03*
X147231100Y-115163600D03*
X149771100Y-115163600D03*
X152311100Y-115163600D03*
X154851100Y-115163600D03*
X157391100Y-115163600D03*
X159931100Y-115163600D03*
X162471100Y-115163600D03*
X165011100Y-115163600D03*
X167551100Y-115163600D03*
%TD*%
D12*
%TO.C,R3*%
X143923500Y-110617000D03*
D13*
X149003500Y-110617000D03*
%TD*%
D12*
%TO.C,R4*%
X148955000Y-103632000D03*
D13*
X154035000Y-103632000D03*
%TD*%
%TO.C,R2*%
X158877000Y-112014000D03*
D12*
X158877000Y-106934000D03*
%TD*%
D14*
%TO.C,C2*%
X155555000Y-99568000D03*
X153055000Y-99568000D03*
%TD*%
D15*
%TO.C,J3*%
X137196000Y-101097000D03*
X129296000Y-103097000D03*
X131696000Y-101097000D03*
%TD*%
D14*
%TO.C,C1*%
X131338000Y-110490000D03*
X133838000Y-110490000D03*
%TD*%
D13*
%TO.C,R1*%
X153035000Y-112014000D03*
D12*
X153035000Y-106934000D03*
%TD*%
D16*
%TO.C,Q1*%
X139319000Y-111760000D03*
D17*
X138049000Y-110490000D03*
X139319000Y-109220000D03*
%TD*%
D16*
%TO.C,Q2*%
X146918000Y-100838000D03*
D17*
X145648000Y-99568000D03*
X146918000Y-98298000D03*
%TD*%
M02*
